PathFileType	4	(X/Y/Z)	Patient4_TMGait_0pt4_01_left_01.trc.trc
DataRate	CameraRate	NumFrames	NumMarkers	Units	OrigDataRate	OrigDataStartFrame	OrigNumFrames
77.348066298343	77.348066298343	5	33	mm	77.348066298343	89	       141
Frame#	Time	Sacral			L.Shoulder			Chest			R.Shoulder			Neck			R.ASIS			L.ASIS			R.Thigh.Superior			R.Thigh.Lateral			R.Thigh.Inferior			R.Patella			L.Thigh.Superior			L.Thigh.Lateral			L.Thigh.Inferior			L.Patella			L.Shank.Superior			L.Shank.Lateral			L.Shank.Inferior			R.Shank.Superior			R.Shank.Lateral			R.Shank.Inferior			R.Heel			R.Midfoot.Superior			R.Midfoot.Lateral			R.Toe			L.Heel			L.Midfoot.Lateral			L.Midfoot.Superior			L.Toe			L.Elbow			L.Wrist			R.Elbow			R.Wrist			
		X1	Y1	Z1	X2	Y2	Z2	X3	Y3	Z3	X4	Y4	Z4	X5	Y5	Z5	X6	Y6	Z6	X7	Y7	Z7	X8	Y8	Z8	X9	Y9	Z9	X10	Y10	Z10	X11	Y11	Z11	X12	Y12	Z12	X13	Y13	Z13	X14	Y14	Z14	X15	Y15	Z15	X16	Y16	Z16	X17	Y17	Z17	X18	Y18	Z18	X19	Y19	Z19	X20	Y20	Z20	X21	Y21	Z21	X22	Y22	Z22	X23	Y23	Z23	X24	Y24	Z24	X25	Y25	Z25	X26	Y26	Z26	X27	Y27	Z27	X28	Y28	Z28	X29	Y29	Z29	X30	Y30	Z30	X31	Y31	Z31	X32	Y32	Z32	X33	Y33	Z33	

89	1.247714285714	852.996128341504	993.446466026097	498.113530877217	1028.725061428605	1423.091653572035	306.221857352023	1120.900533490565	1364.981640730653	476.644330476641	1024.405584201978	1442.235997473389	641.569934749855	1004.295534314478	1491.262305395220	458.630966464796	1082.621572236345	943.705678913113	625.746669275803	1079.520531875776	960.523866098173	348.724939309592	1141.020098144604	748.915737489780	595.710502259783	1068.893457636979	633.947699898994	655.883310509076	1152.282837605233	587.793742608940	576.909523799116	1159.292803606887	499.590680886386	583.452752978213	1113.156582438248	738.506740490226	374.155882256321	1023.168109455311	625.928451258924	304.932170667452	1106.122787908665	540.745892831447	362.556986306128	1099.143622752684	458.769312199145	359.800276237524	1039.367306583218	396.898017096672	352.708398728801	907.061646412063	333.509255334200	302.680300921409	911.934308377409	205.222785213871	360.512966905039	1135.197129911859	408.772533336724	590.393929133105	1068.654456435322	302.844991906774	653.826127545887	1113.759655361863	208.922319991898	590.917865107003	985.262764973632	43.084504969489	563.437774509928	1156.164136077749	97.775325350196	597.006454798863	1069.436187001297	37.389125803920	637.482974468834	1277.159725075981	46.470686358293	623.446805407027	738.291803143129	102.109266433703	403.497835794595	800.110075439619	75.159172393228	318.878864442228	899.173947293757	109.653209157516	336.935312939557	1001.364412526182	35.189595030230	299.237260474161	1054.101951521102	1073.293182013652	188.183333530835	1279.360216990481	943.871327006943	196.156132023410	947.224817857457	1104.290233799053	762.376313188618	1020.004013711860	852.983380821551	774.770327145050	
90	1.260642857143	853.192812425910	993.957170045200	501.891400616381	1027.455210372799	1423.449153650266	308.665294249652	1121.529520276334	1365.171874572920	478.000332458134	1027.052516591526	1442.500495048126	643.997574772713	1004.918675291324	1491.592724074321	461.312697890374	1084.117201110299	943.980259808697	627.195197266299	1078.731938326624	961.229018886358	350.104505346183	1140.946624857094	748.457530111540	597.392580834667	1067.756317665097	633.829883987658	657.236416004369	1150.692257260933	587.239756335345	578.044418156111	1156.963777307174	498.996059583134	584.043717284727	1117.256730147372	741.006968698648	376.179717238232	1031.894630832894	626.283814453928	306.078127724389	1117.552341502301	542.901938534667	363.593274322135	1111.732423303943	459.762418049556	360.134568094388	1050.007117269442	397.873235531533	353.117175289706	915.505265645363	339.169777468318	303.263297511438	916.310428470492	210.606420756245	360.383312859129	1132.349903069726	408.359788806965	590.940216393636	1065.429639930481	302.722231874990	654.225149206258	1109.696356492035	208.671554359183	591.061429174370	980.193423598601	43.124895769292	563.587091636982	1151.149280910121	97.750248530218	597.185317322068	1064.381996862418	37.373857459917	637.628179716503	1272.148173883896	46.311474291352	623.640436867570	738.700385107854	115.805291609258	403.238354237959	799.029242224544	85.289189349326	318.740046403654	899.850228489918	113.859672142381	336.682770120921	996.783053337488	34.350299556172	299.531731180186	1050.626364752156	1072.532299783686	192.775388294168	1271.353279427488	934.591020260122	199.230244640883	957.089817792537	1102.985792082818	766.371030508362	1039.203426674435	854.600608901770	776.073921654244	
91	1.273571428571	853.205031340858	994.430842807291	505.599876567090	1025.933609506787	1423.699265486037	310.974099410927	1122.034456223194	1365.257571431159	479.125602014985	1029.736622051156	1442.665982109706	646.268772039821	1005.474753904455	1491.844806235428	463.864105149677	1085.428232730740	944.179065296087	628.445286695994	1077.554124525278	961.762612495079	351.374201263243	1140.625646872948	747.937367589153	598.841818577020	1066.516387990621	633.661719452422	658.464696054684	1148.908177428293	586.672463116689	578.982705848672	1154.470773753217	498.371002791956	584.501837658558	1121.142136261055	743.735409916490	378.004600990186	1040.450579212750	627.000733660640	307.019152661481	1128.647877740099	545.545578067073	364.551980465188	1124.133296665205	461.331070551465	360.528664412103	1060.675817718777	399.325216292688	353.533282181207	924.182370804876	345.119290165531	303.960608402637	921.157402932653	216.375998061394	360.438506406267	1129.355790119142	407.919750825715	591.386085830608	1062.068866082913	302.560052768044	654.558134432909	1105.524048149333	208.400671880201	591.135433675574	975.024651602368	43.147217682730	563.702761200870	1146.062569797616	97.684805313535	597.293102646192	1059.232163108729	37.348232841765	637.734262607776	1267.048008445100	46.096565337969	623.788567562999	739.977625595232	129.891553310837	403.358564696597	798.637340249957	96.023270122384	318.881151999791	901.039582661065	118.525777306433	336.715731484055	992.493176599801	33.554273144110	299.873447195362	1046.969245244310	1071.669323043784	197.273261906438	1262.441538040073	924.804975819259	202.154536577945	967.219188298981	1101.852332930717	770.463148303161	1058.833849491123	856.862164233513	777.178486151393	
92	1.286500000000	853.063877350202	994.859374125780	509.214619409560	1024.205637675311	1423.845491762557	313.129614761145	1122.424191806162	1365.245716185681	480.018963252879	1032.432849835570	1442.736138033892	648.362592437476	1005.981324075676	1492.023846063255	466.258257196514	1086.548257191193	944.297831001631	629.515531541745	1075.981656971984	962.086534147164	352.579331122251	1140.097530288968	747.379742569826	599.994426724514	1065.300448815380	633.466339585764	659.588360743539	1147.006070399629	586.104070122248	579.701477755299	1151.899043730118	497.723318738291	584.849754257107	1124.707850595051	746.655413852745	379.612626575810	1048.596801586798	628.099942988248	307.751998484732	1139.163395447537	548.657640978202	365.367846005236	1136.101966909451	463.459451988420	360.888468763049	1071.139868756448	401.245520470203	353.904571823187	932.852073556395	351.208930704839	304.780370100855	926.393254468780	222.334095810089	360.680364410482	1126.289288798509	407.453966952357	591.745861884072	1058.646212284685	302.367123706223	654.856877039418	1101.290632737708	208.111247034618	591.156698355483	969.784860135141	43.157254392584	563.803200561906	1140.929624284021	97.594812858404	597.348897100719	1054.016984094343	37.318315950601	637.819475594149	1261.886164297137	45.846751873041	623.900620643973	742.149335580651	143.800001043943	403.911577335503	799.024153899757	106.897932489212	319.346161812270	902.791618426913	123.486370028632	337.021188710570	988.786442185859	32.830588659377	300.220908698453	1043.143534491524	1070.700086838875	201.681571450514	1252.573382386931	914.615099474704	204.916247973910	977.554674557545	1100.909345883008	774.606294502458	1078.789040221186	859.819104236928	778.015690336534	
93	1.299428571429	852.800886345087	995.249096738280	512.724007543272	1022.333692593645	1423.903542074635	315.118240645586	1122.716610906937	1365.151671741661	480.688443351274	1035.124039034886	1442.731538296698	650.261521174427	1006.462205968031	1492.145539673823	468.469789147441	1087.474998039884	944.339107408630	630.432832447606	1074.011220934464	962.183489412521	353.766289146391	1139.411157746305	746.808956372734	600.829913667237	1064.183060145576	633.261826860977	660.619997885082	1145.042731958520	585.544418861488	580.198721844475	1149.309710279516	497.064372469293	585.101173425487	1127.858680953641	749.730214354508	381.001293487939	1056.117174675008	629.584729949825	308.278433834830	1148.896984077805	552.201544319989	365.965366452304	1147.423163371557	466.116919930432	361.101709331526	1081.201633504987	403.605915614200	354.161812180620	941.309992503258	357.253914730007	305.705806370374	931.980733426964	228.241952224445	361.076746826601	1123.204413118081	406.967870016973	592.028248427131	1055.214403262847	302.154709887155	655.138194826707	1097.033312254052	207.808814463033	591.138247854779	964.503464373974	43.160155795947	563.900277700889	1135.773102602172	97.496103660653	597.371015557119	1048.765420861744	37.288766243300	637.898122406343	1256.687422723096	45.585866520916	623.986918866149	745.262751752995	156.886991670600	404.902658892045	800.323227060784	117.359294331078	320.139189528536	905.223932910680	128.513313353586	337.544468788846	986.063089386744	32.214253416919	300.522092418743	1039.152844346575	1069.635401808101	206.012941585989	1241.692867970224	904.143958476130	207.509397341004	988.034598616316	1100.182574533149	778.738705481062	1098.960343726396	863.535899024171	778.522443777915	
